<?xml version="1.0" encoding="UTF-8"?>
<svg width="32px" height="32px" viewBox="0 0 32 32" version="1.1" xmlns="http://www.w3.org/2000/svg" xmlns:xlink="http://www.w3.org/1999/xlink">
    <!-- Generator: Sketch 54.1 (76490) - https://sketchapp.com -->
    <title>assessment - material</title>
    <desc>Created with Sketch.</desc>
    <g id="Symbols" stroke="none" stroke-width="1" fill="none" fill-rule="evenodd">
        <g id="header" transform="translate(-20.000000, -19.000000)" fill="#FFFFFF">
            <path d="M44.9173333,43.9173333 L44.9173333,36.7493333 L41.3333333,36.7493333 L41.3333333,43.9173333 L44.9173333,43.9173333 Z M37.7493333,43.9173333 L37.7493333,26.0826667 L34.2506667,26.0826667 L34.2506667,43.9173333 L37.7493333,43.9173333 Z M30.6666667,43.9173333 L30.6666667,31.416 L27.0826667,31.416 L27.0826667,43.9173333 L30.6666667,43.9173333 Z M48.416,19 C49.3831159,19 50.2222187,19.355552 50.9333333,20.0666667 C51.644448,20.7777813 52,21.6168841 52,22.584 L52,47.416 C52,48.3831159 51.644448,49.2222187 50.9333333,49.9333333 C50.2222187,50.644448 49.3831159,51 48.416,51 L23.584,51 C22.6168841,51 21.7777813,50.644448 21.0666667,49.9333333 C20.355552,49.2222187 20,48.3831159 20,47.416 L20,22.584 C20,21.6168841 20.355552,20.7777813 21.0666667,20.0666667 C21.7777813,19.355552 22.6168841,19 23.584,19 L48.416,19 Z" id="assessment---material"></path>
        </g>
    </g>
</svg>